<?xml version="1.0" encoding="UTF-8" standalone="no"?>
<!-- Generator: Adobe Illustrator 18.1.1, SVG Export Plug-In . SVG Version: 6.00 Build 0)  -->

<svg
   xmlns:dc="http://purl.org/dc/elements/1.1/"
   xmlns:cc="http://creativecommons.org/ns#"
   xmlns:rdf="http://www.w3.org/1999/02/22-rdf-syntax-ns#"
   xmlns:svg="http://www.w3.org/2000/svg"
   xmlns="http://www.w3.org/2000/svg"
   xmlns:sodipodi="http://sodipodi.sourceforge.net/DTD/sodipodi-0.dtd"
   xmlns:inkscape="http://www.inkscape.org/namespaces/inkscape"
   version="1.1"
   id="Capa_1"
   x="0px"
   y="0px"
   viewBox="0 0 612 612"
   style="enable-background:new 0 0 612 612;"
   xml:space="preserve"
   sodipodi:docname="battleship.svg"
   inkscape:version="0.92.4 (5da689c313, 2019-01-14)"><metadata
   id="metadata895"><rdf:RDF><cc:Work
       rdf:about=""><dc:format>image/svg+xml</dc:format><dc:type
         rdf:resource="http://purl.org/dc/dcmitype/StillImage" /></cc:Work></rdf:RDF></metadata><defs
   id="defs893" /><sodipodi:namedview
   pagecolor="#ffffff"
   bordercolor="#666666"
   borderopacity="1"
   objecttolerance="10"
   gridtolerance="10"
   guidetolerance="10"
   inkscape:pageopacity="0"
   inkscape:pageshadow="2"
   inkscape:window-width="954"
   inkscape:window-height="758"
   id="namedview891"
   showgrid="false"
   inkscape:zoom="0.70098039"
   inkscape:cx="317.84509"
   inkscape:cy="306.56358"
   inkscape:window-x="512"
   inkscape:window-y="150"
   inkscape:window-maximized="0"
   inkscape:current-layer="g858" />
<g
   id="g858">
	<path
   d="M569.753,360.073c-12.658-4.041-25.24-8.299-37.768-12.705V311.86c0-0.048,0-0.096,0-0.144v-47.144v-28.615v-32.011   c0-5.904-3.456-11.26-8.835-13.694l-95.236-43.089c-1.948-0.881-4.059-1.337-6.197-1.337h-92.656   c-4.732,0-9.185,2.227-12.026,6.012l-45.094,60.126c-3.416,4.555-3.964,10.649-1.418,15.741c2.545,5.092,7.75,8.309,13.444,8.309   h134.472l83.482,38.21v15.117l-78.661-32.692c-7.659-3.184-16.462,0.445-19.647,8.111c-3.187,7.667,0.445,16.463,8.111,19.649   l90.197,37.486v14.591c-35.853-13.327-71.352-27.632-106.891-41.747C270.471,245.271,11.606,181.916,1.109,209.877   c-10.504,27.961,56.462,94.022,80.627,142.503c33.618,67.456-23.344,60.643-25.428,113.792c120.295,0,240.589,0,360.881,0   c59.817,0,119.632,0,179.449,0c4.992-5.055,0.614-33.908,3.271-43.377C613.881,372.974,627.197,378.416,569.753,360.073z"
   id="path856"
   style="fill:#ffffff;fill-opacity:1" />
</g>
<g
   id="g860">
</g>
<g
   id="g862">
</g>
<g
   id="g864">
</g>
<g
   id="g866">
</g>
<g
   id="g868">
</g>
<g
   id="g870">
</g>
<g
   id="g872">
</g>
<g
   id="g874">
</g>
<g
   id="g876">
</g>
<g
   id="g878">
</g>
<g
   id="g880">
</g>
<g
   id="g882">
</g>
<g
   id="g884">
</g>
<g
   id="g886">
</g>
<g
   id="g888">
</g>
</svg>